<?xml version="1.0" encoding="UTF-8" standalone="no"?>
<!-- Generator: Adobe Illustrator 16.0.0, SVG Export Plug-In . SVG Version: 6.00 Build 0)  -->

<svg
   version="1.1"
   id="Layer_1"
   x="0px"
   y="0px"
   width="185px"
   height="188px"
   viewBox="0 0 185 188"
   enable-background="new 0 0 185 188"
   xml:space="preserve"
   sodipodi:docname="logos.svg"
   inkscape:version="1.1 (ce6663b3b7, 2021-05-25)"
   xmlns:inkscape="http://www.inkscape.org/namespaces/inkscape"
   xmlns:sodipodi="http://sodipodi.sourceforge.net/DTD/sodipodi-0.dtd"
   xmlns:xlink="http://www.w3.org/1999/xlink"
   xmlns="http://www.w3.org/2000/svg"
   xmlns:svg="http://www.w3.org/2000/svg"><defs
   id="defs359"><linearGradient
     id="linearGradient24883"
     inkscape:swatch="solid"><stop
       style="stop-color:#000000;stop-opacity:1;"
       offset="0"
       id="stop24881" /></linearGradient><linearGradient
     id="linearGradient24875"
     inkscape:swatch="solid"><stop
       style="stop-color:#090000;stop-opacity:1;"
       offset="0"
       id="stop24873" /></linearGradient><filter
     inkscape:label="Flatten Transparency"
     inkscape:menu="Fill and Transparency"
     inkscape:menu-tooltip="Adds a white opaque background"
     style="color-interpolation-filters:sRGB;"
     id="filter1064"
     x="0"
     y="0"
     width="1"
     height="1"><feComposite
       in2="SourceGraphic"
       operator="arithmetic"
       k4="1"
       result="result1"
       id="feComposite1056" /><feMerge
       id="feMerge1062"><feMergeNode
         in="result1"
         id="feMergeNode1058" /><feMergeNode
         in="SourceGraphic"
         id="feMergeNode1060" /></feMerge></filter><filter
     inkscape:label="Light Eraser"
     inkscape:menu="Fill and Transparency"
     inkscape:menu-tooltip="Adds a white opaque background"
     style="color-interpolation-filters:sRGB;"
     id="filter1159"
     x="0"
     y="0"
     width="1"
     height="1"><feComposite
       in2="SourceGraphic"
       operator="arithmetic"
       k4="1"
       result="result1"
       id="feComposite1151" /><feMerge
       id="feMerge1157"
       result="fbSourceGraphic"><feMergeNode
         in="result1"
         id="feMergeNode1153" /><feMergeNode
         in="SourceGraphic"
         id="feMergeNode1155" /></feMerge><feColorMatrix
       result="fbSourceGraphicAlpha"
       in="fbSourceGraphic"
       values="0 0 0 -1 0 0 0 0 -1 0 0 0 0 -1 0 0 0 0 1 0"
       id="feColorMatrix1635" /><feColorMatrix
       id="feColorMatrix1637"
       values="1 0 0 0 0 0 1 0 0 0 0 0 1 0 0 -15.9587 -53.7265 -5.41471 50 0 "
       result="colormatrix"
       in="fbSourceGraphic" /><feComposite
       in2="colormatrix"
       id="feComposite1639"
       operator="arithmetic"
       k2="0.4"
       result="fbSourceGraphic" /><feColorMatrix
       result="fbSourceGraphicAlpha"
       in="fbSourceGraphic"
       values="0 0 0 -1 0 0 0 0 -1 0 0 0 0 -1 0 0 0 0 1 0"
       id="feColorMatrix1659" /><feColorMatrix
       id="feColorMatrix1661"
       values="1 0 0 0 0 0 1 0 0 0 0 0 1 0 0 -15.9587 -53.7265 -5.41471 50 0 "
       result="colormatrix"
       in="fbSourceGraphic" /><feComposite
       in2="colormatrix"
       id="feComposite1663"
       operator="arithmetic"
       k2="0.4"
       result="fbSourceGraphic" /><feColorMatrix
       result="fbSourceGraphicAlpha"
       in="fbSourceGraphic"
       values="0 0 0 -1 0 0 0 0 -1 0 0 0 0 -1 0 0 0 0 1 0"
       id="feColorMatrix1683" /><feColorMatrix
       id="feColorMatrix1685"
       values="1 0 0 0 0 0 1 0 0 0 0 0 1 0 0 -15.9587 -53.7265 -5.41471 50 0 "
       result="colormatrix"
       in="fbSourceGraphic" /><feComposite
       in2="colormatrix"
       id="feComposite1687"
       operator="arithmetic"
       k2="0.4"
       result="fbSourceGraphic" /><feColorMatrix
       result="fbSourceGraphicAlpha"
       in="fbSourceGraphic"
       values="0 0 0 -1 0 0 0 0 -1 0 0 0 0 -1 0 0 0 0 1 0"
       id="feColorMatrix1906" /><feColorMatrix
       id="feColorMatrix1908"
       values="1 0 0 0 0 0 1 0 0 0 0 0 1 0 0 -15.9587 -53.7265 -5.41471 50 0 "
       result="colormatrix"
       in="fbSourceGraphic" /><feComposite
       in2="colormatrix"
       id="feComposite1910"
       operator="arithmetic"
       k2="0.6"
       result="fbSourceGraphic" /><feColorMatrix
       result="fbSourceGraphicAlpha"
       in="fbSourceGraphic"
       values="0 0 0 -1 0 0 0 0 -1 0 0 0 0 -1 0 0 0 0 1 0"
       id="feColorMatrix2180" /><feColorMatrix
       id="feColorMatrix2182"
       values="1 0 0 0 0 0 1 0 0 0 0 0 1 0 0 -15.9587 -53.7265 -5.41471 65.9 0 "
       result="colormatrix"
       in="fbSourceGraphic" /><feComposite
       in2="colormatrix"
       id="feComposite2184"
       operator="arithmetic"
       k2="1"
       result="fbSourceGraphic" /><feColorMatrix
       result="fbSourceGraphicAlpha"
       in="fbSourceGraphic"
       values="0 0 0 -1 0 0 0 0 -1 0 0 0 0 -1 0 0 0 0 1 0"
       id="feColorMatrix3328" /><feColorMatrix
       id="feColorMatrix3330"
       values="1 0 0 0 0 0 1 0 0 0 0 0 1 0 0 -15.9587 -53.7265 -5.41471 300 0 "
       result="colormatrix"
       in="fbSourceGraphic" /><feComposite
       in2="colormatrix"
       id="feComposite3332"
       operator="arithmetic"
       k2="1"
       result="fbSourceGraphic" /><feColorMatrix
       result="fbSourceGraphicAlpha"
       in="fbSourceGraphic"
       values="0 0 0 -1 0 0 0 0 -1 0 0 0 0 -1 0 0 0 0 1 0"
       id="feColorMatrix3515" /><feColorMatrix
       id="feColorMatrix3517"
       values="1 0 0 0 0 0 1 0 0 0 0 0 1 0 0 -15.9587 -53.7265 -5.41471 64.3565 0 "
       result="colormatrix"
       in="fbSourceGraphic" /><feComposite
       in2="colormatrix"
       id="feComposite3519"
       operator="arithmetic"
       k2="1"
       result="fbSourceGraphic" /><feColorMatrix
       result="fbSourceGraphicAlpha"
       in="fbSourceGraphic"
       values="0 0 0 -1 0 0 0 0 -1 0 0 0 0 -1 0 0 0 0 1 0"
       id="feColorMatrix3731" /><feColorMatrix
       id="feColorMatrix3733"
       values="1 0 0 0 0 0 1 0 0 0 0 0 1 0 0 -15.9587 -53.7265 -5.41471 64.3565 0 "
       result="colormatrix"
       in="fbSourceGraphic" /><feComposite
       in2="colormatrix"
       id="feComposite3735"
       operator="arithmetic"
       k2="0.99"
       result="composite" /></filter><linearGradient
     inkscape:collect="always"
     xlink:href="#linearGradient24875"
     id="linearGradient24877"
     x1="59.554678"
     y1="144.11943"
     x2="185.62868"
     y2="144.11943"
     gradientUnits="userSpaceOnUse" /><linearGradient
     inkscape:collect="always"
     xlink:href="#linearGradient24883"
     id="linearGradient24885"
     x1="59.224973"
     y1="144.11943"
     x2="185.95839"
     y2="144.11943"
     gradientUnits="userSpaceOnUse" /><linearGradient
     inkscape:collect="always"
     xlink:href="#linearGradient24883"
     id="linearGradient24887"
     x1="63.179678"
     y1="168.50388"
     x2="183.35531"
     y2="168.50388"
     gradientUnits="userSpaceOnUse" /><linearGradient
     inkscape:collect="always"
     xlink:href="#linearGradient24875"
     id="linearGradient25241"
     gradientUnits="userSpaceOnUse"
     gradientTransform="matrix(0.82174561,0,0,0.82174562,10.6531,19.56851)"
     x1="63.432385"
     y1="168.50388"
     x2="183.10261"
     y2="168.50388" /></defs><sodipodi:namedview
   id="namedview357"
   pagecolor=""
   bordercolor="#666666"
   borderopacity="1.0"
   inkscape:pageshadow="2"
   inkscape:pageopacity="0.0"
   inkscape:pagecheckerboard="0"
   showgrid="false"
   inkscape:zoom="3.2260381"
   inkscape:cx="42.311961"
   inkscape:cy="98.417932"
   inkscape:window-width="1280"
   inkscape:window-height="996"
   inkscape:window-x="1600"
   inkscape:window-y="0"
   inkscape:window-maximized="1"
   inkscape:current-layer="Layer_1" />



































































































<path
   style="fill:#000000;stroke-width:0.30722"
   d="M 28.399506,57.2296 C 28.143611,56.783676 27.841985,55.888283 27.729221,55.239844 27.616465,54.591403 27.229813,53.475775 26.870027,52.760671 26.510235,52.045559 26.06933,50.55213 25.890234,49.441942 25.71115,48.331751 25.253515,46.789976 24.873285,46.015784 24.033558,44.306001 24.005753,43.385687 24.727848,41.20185 c 0.514811,-1.556932 0.516647,-1.824399 0.0257,-3.744243 -0.310619,-1.214675 -1.009237,-2.753798 -1.693609,-3.73119 -1.123455,-1.604487 -1.15667,-1.731144 -0.933786,-3.560946 0.248409,-2.039356 0.04322,-2.395867 -1.384266,-2.40471 -0.391633,-0.0024 -1.150129,-0.328478 -1.685541,-0.724568 -1.120032,-0.828591 -1.814006,-0.888878 -3.423984,-0.29745 -0.632893,0.232492 -2.320132,0.508449 -3.749422,0.613247 -2.5901621,0.189916 -2.6046131,0.187099 -4.3908988,-0.855643 -1.434132,-0.837173 -2.046507,-1.460152 -3.065151,-3.118264 -1.204159,-1.960068 -1.284776,-2.25198 -1.491325,-5.400383 l -0.218349,-3.328307 1.088166,-1.924907 c 0.699042,-1.236562 1.617943,-2.314243 2.569661,-3.0136696 1.224099,-0.8996065 1.481481,-1.2590815 1.481481,-2.0691515 0,-0.752495 0.266567,-1.195056 1.146772,-1.903889 0.6307267,-0.507926 1.1467728,-1.125272 1.1467728,-1.37189 0,-0.716223 0.865761,-1.163462 1.874979,-0.968582 0.549096,0.106031 1.642302,-0.04082 2.716524,-0.365011 0.988708,-0.298347 3.161493,-0.635718 4.828408,-0.74971 l 3.030757,-0.207268 v 1.18698 c 0,1.463818 0.765882,2.205664 3.555195,3.443589 2.432896,1.079748 3.220194,1.116102 3.709831,0.171291 0.203689,-0.393045 0.605994,-0.779368 0.894015,-0.858493 0.497578,-0.136709 8.380041,1.326742 8.710371,1.61716 0.08628,0.07586 -0.0074,0.520502 -0.207998,0.988024 -0.328413,0.7649475 -0.215795,1.0946825 1.124967,3.2937501 0.819456,1.344045 1.790885,3.314443 2.158725,4.378668 0.889489,2.573428 1.325585,3.233464 3.454813,5.228962 1.679886,1.574365 1.87813,1.676827 2.881396,1.489238 2.161859,-0.404239 3.676839,-0.332259 3.791942,0.180159 0.124613,0.55474 -2.186917,4.030134 -2.796468,4.204495 -0.733709,0.209881 -0.431098,-0.841271 0.409559,-1.422638 1.036971,-0.717147 1.045422,-1.533285 0.02201,-2.122858 -0.96058,-0.553353 -2.151699,-0.148909 -2.151699,0.730593 0,0.393012 -0.354604,0.639034 -1.228689,0.852451 -1.747421,0.426654 -1.886839,0.40041 -2.980341,-0.560987 -0.54062,-0.475304 -1.289178,-0.864192 -1.663454,-0.864192 -0.601864,0 -0.6805,-0.173503 -0.6805,-1.50152 0,-1.288298 0.126369,-1.590115 0.889905,-2.125379 0.797837,-0.559314 0.849839,-0.701191 0.502614,-1.371189 -0.213013,-0.411025 -0.750738,-0.82752 -1.194974,-0.92554 -0.64223,-0.141723 -1.080777,-0.725704 -2.140859,-2.850832 -0.733255,-1.469934 -1.333183,-3.013677 -1.333183,-3.430533 0,-0.647419 -0.14107,-0.757933 -0.967524,-0.757933 -0.532148,0 -1.337068,-0.148026 -1.788718,-0.328951 -0.705892,-0.282776 -0.770335,-0.414201 -0.45905,-0.9362126 0.199164,-0.333991 0.564857,-0.712451 0.812651,-0.84101 C 36.173062,8.8138389 36.29028,8.5869899 36.185756,8.4382939 35.835518,7.9400609 35.513785,8.1604759 35.091063,9.1882654 34.739386,10.04332 34.556232,10.177939 33.960381,10.019346 33.569316,9.9152664 32.944979,9.5857444 32.572937,9.2870864 32.200907,8.9884194 31.666063,8.7440649 31.384371,8.7440649 c -0.757536,0 -1.332085,0.7527145 -1.08885,1.4265001 0.117138,0.324469 0.119424,0.849111 0.0046,1.165863 -0.171287,0.474481 -0.32283,0.52184 -0.860423,0.268885 -0.872244,-0.410412 -2.469668,-0.07243 -3.039763,0.643183 -0.682708,0.856941 -1.716042,0.265162 -1.985497,-1.137072 -0.205876,-1.071338 0.06817,-2.0069296 0.880808,-3.0075771 0.50219,-0.61835 -0.08146,-1.257759 -0.896963,-0.982627 -0.402423,0.13577 -0.487038,0.392383 -0.332866,1.009499 0.25838,1.0342985 -0.112222,2.4165841 -0.604521,2.2547491 -0.203022,-0.06671 -0.660882,-0.02997 -1.01747,0.08172 -0.514321,0.161091 -0.911135,-0.08711 -1.919671,-1.2007466 -1.162697,-1.2838725 -1.238789,-1.4728905 -0.890521,-2.2121155 0.479751,-1.018286 -0.02867,-2.138225 -1.180106,-2.599468 -1.181938,-0.47346 -1.692606,-0.396948 -2.584546,0.387238 -1.098465,0.965756 -1.035224,2.040793 0.178713,3.037775 0.755978,0.620872 0.982945,1.0580505 0.982945,1.8932965 0,0.5973146 -0.23183,1.3112516 -0.515187,1.5865226 -0.488856,0.474921 -0.626959,0.472398 -2.70206,-0.04932 -1.202784,-0.302406 -2.224205,-0.549833 -2.269829,-0.549833 -0.04566,0 -0.08296,-0.251909 -0.08296,-0.559793 0,-0.6635876 -1.171556,-1.4566561 -2.1518401,-1.4566561 -1.5634737,0 -2.3694837,2.0342261 -1.1807607,2.9800341 0.791335,0.629626 1.7513587,0.602794 2.7334718,-0.07643 0.764296,-0.528569 0.884329,-0.532472 2.701558,-0.08778 2.375041,0.581197 3.032713,1.443609 1.795649,2.354656 -0.431979,0.318133 -1.262728,0.699932 -1.846117,0.84844 -0.58339,0.148508 -1.272176,0.455936 -1.530642,0.683177 -0.71402,0.627758 -5.3352038,1.219756 -5.9604208,0.763559 -0.397146,-0.289781 -0.590084,-0.271906 -1.00527,0.09312 -0.617728,0.543104 -0.321384,1.083138 0.594388,1.083138 0.951272,0 4.8670378,3.380461 4.8670378,4.201694 0,0.720543 1.399119,1.847669 2.293545,1.847669 0.311808,0 0.965349,-0.275533 1.452317,-0.612309 0.738593,-0.510784 0.869746,-0.802827 0.791024,-1.761397 -0.09432,-1.148455 -0.09328,-1.149516 1.895779,-1.943337 1.443898,-0.576248 2.143699,-0.718714 2.549559,-0.519024 0.307672,0.151383 0.756334,0.208795 0.997032,0.127597 0.664326,-0.22413 1.239516,1.98792 0.632154,2.431085 -0.644682,0.470398 -0.562787,1.813707 0.144896,2.376776 0.329556,0.262207 1.115572,0.476742 1.746707,0.476742 1.198542,0 1.642183,0.437832 2.039777,2.013111 0.206762,0.819175 -0.407115,2.883992 -0.857417,2.883992 -0.510278,0 -0.109089,1.006217 0.407908,1.023079 0.267915,0.0087 0.88117,0.117732 1.362811,0.242209 0.77152,0.199388 0.855104,0.337909 0.70257,1.16432 -0.223869,1.212896 0.59494,2.611578 1.867585,3.190185 0.537574,0.244406 0.971218,0.473443 0.963645,0.508988 -0.0074,0.03552 -0.279398,1.036838 -0.604078,2.225108 -0.495965,1.815154 -0.70621,2.175542 -1.315349,2.254674 -1.534878,0.19938 -1.602842,2.64243 -0.07356,2.64243 0.325294,0 0.979675,0.479721 1.454174,1.066038 0.767131,0.947914 0.809228,1.118003 0.379977,1.535022 -0.97645,0.948616 -0.38523,2.296041 1.007441,2.296041 0.802349,0 2.007505,1.958336 1.674579,2.72113 -0.270709,0.620234 -3.341204,0.633406 -3.610909,0.01551 -0.103724,-0.237651 -0.396331,-0.4321 -0.650232,-0.4321 -0.670661,0 -1.241279,0.716018 -1.003944,1.259782 0.22527,0.516109 1.289038,0.635483 1.608842,0.180544 0.111369,-0.158437 0.767158,-0.288067 1.457299,-0.288067 1.161572,0 1.269942,0.07104 1.458778,0.955973 0.320788,1.503365 -0.103427,2.793901 -1.018983,3.099941 -1.005835,0.336211 -0.935933,1.517458 0.09748,1.647275 0.907832,0.114041 1.597655,-0.618572 1.188182,-1.261874 -0.194974,-0.306318 -0.191598,-0.823203 0.0093,-1.398274 0.287163,-0.822604 0.440655,-0.909626 1.560845,-0.884917 1.500769,0.03308 2.291708,0.55011 2.291708,1.498001 0,0.56635 0.144929,0.686768 0.737212,0.612584 0.599532,-0.07512 0.722267,-0.253697 0.657183,-0.956251 -0.119728,-1.292259 1.96048,-8.963485 2.253245,-8.309387 0.455826,1.01835 0.30785,3.344191 -0.247048,3.883276 -0.292177,0.283839 -0.444242,0.715342 -0.337947,0.958889 0.29402,0.673632 1.501588,0.539022 1.841888,-0.205316 0.181773,-0.397583 0.304348,-0.475533 0.317094,-0.201642 0.02703,0.580674 -0.618819,1.137855 -1.318898,1.137855 -0.380446,0 -0.624468,0.337486 -0.781105,1.080247 -0.31095,1.474564 -1.222039,2.69499 -2.931038,3.926195 -1.716689,1.236756 -2.387886,1.478475 -4.840222,1.743107 -1.811844,0.195518 -1.8778,0.178262 -2.329885,-0.609564 z m 6.588001,-4.303151 c -0.423647,-0.372467 -0.464085,-0.615093 -0.190488,-1.143034 0.266177,-0.5136 0.230285,-0.827242 -0.153546,-1.34228 -0.475039,-0.637409 -0.411303,-0.803171 1.235326,-3.21282 1.821869,-2.666076 2.329728,-3.253217 2.604792,-3.011384 0.26648,0.234287 -2.262529,8.978452 -2.627719,9.08548 -0.181806,0.05324 -0.572567,-0.115903 -0.868365,-0.375962 z m -2.92287,-4.581707 c -0.491361,-0.976609 -0.579868,-1.436242 -0.320464,-1.664309 0.197115,-0.1733 0.358371,-0.59587 0.358371,-0.939063 0,-0.863276 4.446475,-2.680365 5.108686,-2.087711 0.346424,0.310024 0.08174,0.872675 -1.46542,3.114988 -1.038521,1.505136 -2.138889,2.779073 -2.445272,2.830972 -0.393444,0.06663 -0.756447,-0.301933 -1.235901,-1.254877 z m 7.829438,0.728422 c -0.111079,-0.237651 -0.275705,-1.428763 -0.365824,-2.646902 -0.154081,-2.082928 -0.118136,-2.241136 0.603648,-2.656931 0.422114,-0.243162 0.862319,-0.704831 0.978235,-1.025926 0.143323,-0.397014 0.491968,-0.58239 1.089703,-0.579393 1.297991,0.0065 1.764561,0.38238 1.642408,1.32314 -0.08897,0.685447 -0.340214,0.899452 -1.418751,1.208553 -0.720826,0.20659 -1.458038,0.504456 -1.638238,0.66193 -0.180207,0.157464 -0.408998,1.155109 -0.508427,2.216967 -0.09942,1.061864 -0.271662,1.736216 -0.382754,1.498562 z m 7.893508,-0.630262 c -0.293483,-0.207883 -0.61427,-0.854925 -0.712861,-1.437878 -0.172244,-1.018465 -0.109744,-1.102 1.598554,-2.136405 0.977789,-0.592072 1.712529,-1.133877 1.632757,-1.20402 -0.07979,-0.07015 -0.581771,0.145879 -1.115535,0.480033 -1.051265,0.658134 -1.734642,0.821021 -1.098669,0.261879 0.216246,-0.190128 0.393176,-0.579015 0.393176,-0.864199 0,-0.626246 0.513609,-0.655071 1.730297,-0.0971 0.501146,0.22982 1.127776,0.344783 1.392503,0.255468 0.557039,-0.187932 0.645597,-0.868804 0.132554,-1.019159 -0.191828,-0.05618 -0.428747,-0.626369 -0.526482,-1.266994 -0.156182,-1.023765 -0.0743,-1.224352 0.676441,-1.656821 0.469772,-0.270617 0.854124,-0.683495 0.854124,-0.917497 0,-0.233994 0.224819,-0.425454 0.499585,-0.425454 0.274777,0 0.648857,-0.345186 0.831304,-0.767071 0.444881,-1.028769 0.94949,-0.557016 1.33284,1.246075 0.228867,1.076458 0.19493,1.458945 -0.149198,1.681481 -0.244991,0.158437 -0.632342,0.786995 -0.860783,1.396787 -0.22844,0.6098 -0.915153,1.886136 -1.526024,2.836312 -0.61086,0.950167 -1.111402,1.812351 -1.112293,1.915957 -9.04e-4,0.103606 -0.33264,0.544613 -0.737211,0.980014 -0.859335,0.924821 -2.457161,1.289612 -3.235079,0.738589 z m -16.815378,-4.11215 c -0.53158,-0.206044 -1.293393,-0.735054 -1.692902,-1.175556 -0.66788,-0.736408 -0.686434,-0.854548 -0.230299,-1.466595 0.685073,-0.919221 2.404564,-1.167709 3.542859,-0.511983 0.751836,0.433112 0.989123,0.453289 1.571351,0.133604 0.616017,-0.338227 0.785546,-0.27839 1.666148,0.588106 l 0.980356,0.964653 -2.271667,0.933428 c -2.593783,1.065786 -2.306033,1.022671 -3.565846,0.534343 z m 18.086184,-1.513278 c -1.09238,-0.145495 -1.186633,-0.855846 -0.232963,-1.755812 1.035653,-0.977344 1.855792,-0.82352 2.015337,0.377985 0.120266,0.905722 -0.221085,1.655964 -0.701128,1.540992 -0.09911,-0.02376 -0.585672,-0.09716 -1.081246,-0.163165 z m -6.437132,-0.929648 c -0.612067,-0.08818 -1.260401,-0.36711 -1.44076,-0.619844 -0.505011,-0.707706 0.0083,-1.973925 0.924503,-2.280153 0.821563,-0.274625 1.080287,-0.968319 0.482321,-1.293237 -0.194525,-0.105695 -0.322519,-1.838932 -0.315033,-4.265958 l 0.01262,-4.087924 1.027738,-0.576133 c 0.591742,-0.331712 1.188604,-1.001399 1.406903,-1.578562 0.314128,-0.830492 0.617809,-1.063189 1.770455,-1.356587 1.776569,-0.452229 2.541521,-0.08067 2.728204,1.325199 0.122597,0.923303 -0.0625,1.204895 -1.959367,2.980558 -1.286357,1.204168 -2.486696,2.697293 -3.110359,3.86901 l -1.015599,1.908086 0.546341,1.802635 c 0.569567,1.879302 0.723667,4.046638 0.300595,4.227922 -0.135156,0.05789 -0.746516,0.03316 -1.358575,-0.05504 z m -6.964251,-0.80847 c -0.263402,-0.277255 -0.646518,-0.850612 -0.851398,-1.274123 -0.217683,-0.45 -0.682125,-0.809148 -1.117547,-0.864191 -0.613698,-0.07758 -0.857416,-0.440307 -1.382296,-2.057338 l -0.637235,-1.963146 0.802588,-0.705624 c 0.745385,-0.65534 0.921965,-0.685716 2.477821,-0.426295 2.596895,0.432991 3.293637,1.182921 3.567484,3.839794 0.224616,2.179226 0.217599,2.20756 -0.629708,2.546973 -0.471254,0.188782 -0.943321,0.58282 -1.049034,0.875656 -0.240414,0.665946 -0.567479,0.673778 -1.180675,0.02826 z m -6.57764,-0.998206 c -0.406329,-0.538026 -0.417878,-0.865623 -0.07366,-2.088465 0.22455,-0.797691 0.499957,-1.806832 0.612027,-2.242533 0.150869,-0.586577 0.402093,-0.792171 0.967986,-0.792171 0.663876,0 0.840773,0.248512 1.346782,1.892039 0.670728,2.178514 0.410524,3.11748 -0.99404,3.58698 -1.175687,0.392986 -1.313506,0.366611 -1.859108,-0.35585 z M 39.574655,40.0711 c -0.718533,-0.500716 -1.159565,-4.825091 -0.492094,-4.825091 0.625519,0 1.538868,-0.940345 1.538868,-1.584351 0,-0.291929 -0.245561,-0.769332 -0.545707,-1.060911 -0.511189,-0.496624 -0.497288,-0.620995 0.219845,-1.967122 1.311835,-2.462466 1.636461,-1.96126 1.636461,2.526639 0,3.661237 -0.05035,3.991266 -0.660096,4.326049 -0.482275,0.264796 -0.606702,0.549472 -0.461885,1.056729 0.212379,0.743987 -0.07588,1.888138 -0.475726,1.888138 -0.133624,0 -0.475477,-0.162032 -0.759666,-0.36008 z m -3.386663,-6.436846 c -0.174611,-0.03822 -0.83741,-0.145315 -1.472893,-0.238044 -1.106757,-0.161492 -1.156194,-0.220104 -1.173962,-1.391896 -0.01024,-0.672822 -0.124856,-1.483914 -0.254778,-1.80243 -0.1907,-0.467507 -0.044,-0.642904 0.760939,-0.910042 1.495695,-0.496356 2.260626,-0.172867 3.09855,1.310378 l 0.751928,1.331045 -0.696153,0.885219 c -0.382886,0.486867 -0.839029,0.853969 -1.013631,0.81577 z m 1.326291,-2.987703 c -1.064119,-1.846247 -1.039249,-2.201738 0.19323,-2.762079 0.997991,-0.453731 1.036731,-0.445818 1.9828,0.404941 l 0.964927,0.86772 -0.841552,1.460079 c -0.462849,0.803048 -0.984016,1.460087 -1.158156,1.460087 -0.174135,0 -0.687697,-0.643835 -1.141249,-1.430748 z M 25.631477,29.709262 c -0.405463,-0.171927 -0.737212,-0.556201 -0.737212,-0.853952 0,-0.788775 0.891973,-2.539312 1.293881,-2.539312 0.189404,0 0.34437,-0.188349 0.34437,-0.418554 0,-0.238224 0.526711,-0.546419 1.222488,-0.715325 1.560455,-0.378812 1.912582,-0.06753 2.159418,1.908869 0.186411,1.492635 0.184872,1.495689 -0.916084,1.815144 -0.606542,0.175994 -1.280099,0.507805 -1.496785,0.737348 -0.457345,0.484483 -0.850029,0.498299 -1.870076,0.06582 z m 5.982918,-0.650824 c -1.014688,-0.392791 -1.389103,-1.079651 -1.445081,-2.65101 -0.02432,-0.682638 0.136947,-0.964123 0.63138,-1.10209 0.498238,-0.139036 1.152673,0.186886 2.621191,1.305381 1.076428,0.819869 1.957156,1.594795 1.957156,1.722056 0,0.2045 -0.454669,0.393804 -2.293538,0.954913 -0.270313,0.08249 -0.932312,-0.02066 -1.471108,-0.22925 z m 2.128991,-2.592822 c -1.660122,-1.208218 -2.181686,-1.778995 -2.375663,-2.599787 -0.232055,-0.981957 -0.136649,-1.164777 1.439055,-2.757539 0.928177,-0.938214 1.934791,-1.705848 2.236932,-1.705848 0.302135,0 1.699602,1.039199 3.105468,2.309328 l 2.556134,2.309328 -0.861064,0.701598 c -0.553346,0.450865 -0.861064,1.004176 -0.861064,1.548269 0,0.719611 -0.197676,0.916214 -1.317226,1.31005 -0.72448,0.254858 -1.424822,0.456475 -1.556338,0.44804 -0.131503,-0.0084 -1.196309,-0.711984 -2.366234,-1.563439 z m -8.953593,-1.998037 c -0.256073,-0.352519 -0.37935,-1.091353 -0.298798,-1.790698 0.07663,-0.665482 -0.01698,-1.274294 -0.212273,-1.380422 -0.222957,-0.121146 0.205705,-1.172355 1.184522,-2.904733 1.432969,-2.536185 1.588728,-2.70336 2.366464,-2.53995 0.457894,0.09622 0.864579,0.195674 0.903755,0.221036 0.03918,0.02531 0.231144,1.55694 0.426594,3.40353 0.307916,2.909027 0.287308,3.448758 -0.154285,4.041288 -0.28031,0.376134 -0.420542,0.762229 -0.31161,0.857995 0.221047,0.194342 -2.00604,0.741136 -2.896956,0.711258 -0.314312,-0.01053 -0.767653,-0.289226 -1.007413,-0.619304 z m 13.60422,-2.984193 c -2.558043,-2.49477 -2.423105,-1.906632 -1.485315,-6.473942 0.284645,-1.38631 0.628645,-2.520564 0.764442,-2.520564 0.135792,0 0.853313,1.237916 1.594478,2.750932 1.254382,2.560674 1.313295,2.796938 0.851787,3.416186 -0.565603,0.758938 -0.358339,1.493877 0.540572,1.91684 0.476765,0.224326 0.616745,0.614814 0.616745,1.72039 0,0.786603 -0.131819,1.430184 -0.29293,1.430184 -0.161118,0 -1.326516,-1.008013 -2.589779,-2.240026 z m -8.724405,-0.856672 c -0.119014,-1.227872 -0.298553,-2.77191 -0.398981,-3.431195 -0.154193,-1.012251 -0.07671,-1.248499 0.498014,-1.518936 0.568285,-0.267391 0.950682,-0.164652 2.317113,0.622563 1.22073,0.703265 1.590361,1.074393 1.45488,1.460741 -0.09989,0.284865 -0.0093,0.700487 0.201305,0.923597 0.210608,0.223109 0.268629,0.573365 0.128939,0.778355 -0.634935,0.931706 -3.243585,3.397381 -3.594391,3.397381 -0.250014,0 -0.468333,-0.803122 -0.606879,-2.232506 z m -7.004623,0.0107 c -0.953272,-0.160227 -1.433995,-1.240489 -1.178106,-2.647419 0.180768,-0.993862 0.37464,-1.162179 2.300073,-1.996951 2.368864,-1.027007 2.745564,-1.093385 2.745564,-0.48374 0,0.507657 -2.689612,5.351063 -2.939951,5.294206 -0.095,-0.02156 -0.512404,-0.09632 -0.92758,-0.166096 z M 8.3479872,18.712604 c -1.081239,-0.854132 -1.892174,-1.618826 -1.802072,-1.699322 0.0901,-0.08052 1.30894,-0.314468 2.7085157,-0.519939 2.2669101,-0.332806 2.6023131,-0.322925 3.0725501,0.0905 0.787587,0.692436 0.343847,2.27446 -0.856876,3.054947 -0.531223,0.3453 -1.008695,0.627586 -1.061039,0.6273 -0.05233,-2.81e-4 -0.9798341,-0.699354 -2.0610788,-1.553486 z m 5.1771918,0.632852 c -0.589496,-0.25039 -0.685172,-0.469449 -0.526216,-1.20478 0.106857,-0.494314 0.480558,-1.140982 0.830452,-1.437052 0.358338,-0.303214 0.567248,-0.770026 0.47835,-1.068888 -0.248217,-0.834534 1.746985,-2.0356 3.012011,-1.81316 1.199012,0.210828 1.960996,1.695077 1.369274,2.667146 -0.191274,0.314213 -0.347766,0.81207 -0.347766,1.10636 0,0.362586 -0.583225,0.786537 -1.809327,1.315228 -2.009818,0.866618 -1.995751,0.864585 -3.006778,0.435146 z m 18.812712,-3.245549 c -2.081293,-1.249691 -2.045261,-1.194352 -1.123138,-1.725559 1.124029,-0.647509 2.380955,-0.120149 2.879578,1.208153 0.539067,1.436055 0.0255,1.587348 -1.75644,0.517406 z M 35.318979,16.786 c -0.300345,-0.147774 -0.710142,-0.705706 -0.91064,-1.239844 -0.312006,-0.831178 -0.264895,-1.11967 0.326867,-2.001459 0.651989,-0.971538 1.772965,-1.599466 2.194221,-1.229106 0.157528,0.138489 -0.762679,4.473846 -0.992481,4.675897 -0.03958,0.03478 -0.317623,-0.05773 -0.617967,-0.205488 z M 21.101827,16.137462 c -0.101796,-0.233219 0.105569,-0.922708 0.460801,-1.532206 0.496904,-0.852565 0.951685,-1.190475 1.971666,-1.464978 1.699642,-0.457422 2.342929,-0.233692 2.342929,0.814872 0,0.699851 -0.241715,0.935323 -1.556339,1.516225 -2.306884,1.019364 -3.002079,1.163209 -3.219057,0.666087 z m -2.07319,-1.099004 c -0.197836,-0.498952 -0.3597,-1.122324 -0.3597,-1.385273 0,-1.297036 2.153241,-2.19603 2.857297,-1.192932 0.64741,0.922397 -0.847505,3.485382 -2.032918,3.485382 -0.05775,0 -0.266845,-0.408232 -0.464679,-0.907177 z m 11.839718,-2.041283 c -0.481628,-1.172289 -0.19845,-2.23671 0.595032,-2.23671 0.751154,0 1.005808,0.727728 0.69809,1.994918 -0.317082,1.305797 -0.817547,1.399375 -1.293122,0.241792 z m 3.546968,-0.920045 c -0.304645,-0.32273 -0.180662,-1.316665 0.16423,-1.316665 0.342136,0 1.782434,0.698315 1.782434,0.864191 0,0.107575 -0.357414,0.338768 -0.794242,0.513757 -0.610164,0.244422 -0.877259,0.230213 -1.152422,-0.06133 z M 18.668937,11.644122 c 0,-0.147757 -0.294887,-0.350942 -0.6553,-0.45151 -0.520586,-0.145266 -0.655299,-0.435857 -0.655299,-1.4135016 0,-1.0103475 0.137106,-1.2855625 0.765935,-1.5374635 0.695856,-0.27875 0.890725,-0.16635 2.129725,1.2283955 0.750077,0.8443656 1.363782,1.5970966 1.363782,1.6727266 0,0.177537 -1.928406,0.770002 -2.506265,0.770002 -0.243415,0 -0.442578,-0.120892 -0.442578,-0.268649 z m 13.946052,-0.480628 c -0.284215,-0.995578 0.163728,-1.3856496 0.979596,-0.853031 0.500961,0.32705 0.562417,0.524331 0.286627,0.920143 -0.555282,0.796948 -1.026687,0.771962 -1.266223,-0.06712 z"
   id="path95" /><text
   xml:space="preserve"
   style="font-style:normal;font-variant:normal;font-weight:bold;font-stretch:normal;font-size:25.1548px;line-height:1.25;font-family:sans-serif;-inkscape-font-specification:'sans-serif, Bold';font-variant-ligatures:normal;font-variant-caps:normal;font-variant-numeric:normal;font-variant-east-asian:normal;fill:#000000;fill-opacity:1;stroke:none;stroke-width:0.628869"
   x="56.347466"
   y="90.997643"
   id="text5976-9"
   transform="scale(0.94793354,1.0549263)"><tspan
     sodipodi:role="line"
     id="tspan5974-1"
     x="56.347466"
     y="90.997643"
     style="font-style:normal;font-variant:normal;font-weight:bold;font-stretch:normal;font-size:25.1548px;font-family:sans-serif;-inkscape-font-specification:'sans-serif, Bold';font-variant-ligatures:normal;font-variant-caps:normal;font-variant-numeric:normal;font-variant-east-asian:normal;stroke-width:0.628869">DSA 2021</tspan></text><text
   xml:space="preserve"
   style="font-style:normal;font-variant:normal;font-weight:bold;font-stretch:normal;font-size:25.1548px;line-height:1.25;font-family:sans-serif;-inkscape-font-specification:'sans-serif, Bold';font-variant-ligatures:normal;font-variant-caps:normal;font-variant-numeric:normal;font-variant-east-asian:normal;fill:#000000;fill-opacity:1;stroke:none;stroke-width:0.628869"
   x="57.70509"
   y="29.228523"
   id="text5976-9-9"
   transform="scale(0.94793352,1.0549263)"><tspan
     sodipodi:role="line"
     id="tspan5974-1-1"
     x="57.70509"
     y="29.228523"
     style="font-style:normal;font-variant:normal;font-weight:bold;font-stretch:normal;font-size:25.1548px;font-family:sans-serif;-inkscape-font-specification:'sans-serif, Bold';font-variant-ligatures:normal;font-variant-caps:normal;font-variant-numeric:normal;font-variant-east-asian:normal;stroke-width:0.628869">DSA 2021</tspan></text><path
   style="fill:#000000;stroke-width:0.30722"
   d="m 27.668917,120.63682 c -0.255895,-0.44592 -0.557521,-1.34132 -0.670285,-1.98976 -0.112756,-0.64844 -0.499408,-1.76407 -0.859194,-2.47917 -0.359792,-0.71511 -0.800697,-2.20854 -0.979793,-3.31873 -0.179084,-1.11019 -0.636719,-2.65196 -1.016949,-3.42616 -0.839727,-1.70978 -0.867532,-2.63009 -0.145437,-4.81393 0.514811,-1.55693 0.516647,-1.8244 0.0257,-3.74424 -0.310619,-1.21468 -1.009237,-2.7538 -1.693609,-3.73119 -1.123455,-1.60449 -1.15667,-1.73115 -0.933786,-3.56095 0.248409,-2.03936 0.04322,-2.39587 -1.384266,-2.40471 -0.391633,-0.002 -1.150129,-0.32848 -1.685541,-0.72457 -1.120032,-0.82859 -1.814006,-0.88888 -3.423984,-0.29745 -0.632893,0.23249 -2.320132,0.50845 -3.749422,0.61325 C 8.562189,90.94913 8.547738,90.94631 6.761452,89.90357 5.32732,89.06639 4.714945,88.44341 3.696301,86.7853 2.492142,84.82523 2.411525,84.53332 2.204976,81.38492 l -0.218349,-3.32831 1.088166,-1.9249 c 0.699042,-1.23657 1.617943,-2.31425 2.569661,-3.01367 1.224099,-0.89961 1.481481,-1.25909 1.481481,-2.06916 0,-0.75249 0.266567,-1.19505 1.146772,-1.90388 0.630727,-0.50793 1.146773,-1.12528 1.146773,-1.37189 0,-0.71623 0.865761,-1.16347 1.874979,-0.96859 0.549096,0.10603 1.642302,-0.0408 2.716524,-0.36501 0.988708,-0.29834 3.161493,-0.63572 4.828408,-0.74971 l 3.030757,-0.20727 v 1.18698 c 0,1.46382 0.765882,2.20567 3.555195,3.44359 2.432896,1.07975 3.220194,1.11611 3.709831,0.17129 0.203689,-0.39304 0.605994,-0.77936 0.894015,-0.85849 0.497578,-0.13671 8.380041,1.32674 8.710371,1.61716 0.08628,0.0759 -0.0074,0.5205 -0.207998,0.98803 -0.328413,0.76494 -0.215795,1.09468 1.124967,3.29375 0.819456,1.34404 1.790885,3.31444 2.158725,4.37866 0.889489,2.57343 1.325585,3.23347 3.454813,5.22897 1.679886,1.57436 1.87813,1.67682 2.881396,1.48923 2.161859,-0.40424 3.676839,-0.33226 3.791942,0.18016 0.124613,0.55474 -2.186917,4.03014 -2.796468,4.2045 -0.733709,0.20988 -0.431098,-0.84127 0.409559,-1.42264 1.036971,-0.71715 1.045422,-1.53329 0.02201,-2.12286 -0.96058,-0.55335 -2.151699,-0.14891 -2.151699,0.73059 0,0.39302 -0.354604,0.63904 -1.228689,0.85246 -1.747421,0.42665 -1.886839,0.40041 -2.980341,-0.56099 -0.54062,-0.47531 -1.289178,-0.86419 -1.663454,-0.86419 -0.601864,0 -0.6805,-0.17351 -0.6805,-1.50152 0,-1.2883 0.126369,-1.59012 0.889905,-2.12538 0.797837,-0.55932 0.849839,-0.70119 0.502614,-1.37119 -0.213013,-0.41103 -0.750738,-0.82752 -1.194974,-0.92554 -0.64223,-0.14172 -1.080777,-0.72571 -2.140859,-2.85083 -0.733255,-1.46994 -1.333183,-3.01368 -1.333183,-3.43054 0,-0.64742 -0.14107,-0.75793 -0.967524,-0.75793 -0.532148,0 -1.337068,-0.14803 -1.788718,-0.32895 -0.705892,-0.28278 -0.770335,-0.4142 -0.45905,-0.93621 0.199164,-0.33399 0.564857,-0.71245 0.812651,-0.84101 0.247788,-0.12857 0.365006,-0.35542 0.260482,-0.50412 -0.350238,-0.49823 -0.671971,-0.27781 -1.094693,0.74998 -0.351677,0.85505 -0.534831,0.98967 -1.130682,0.83108 -0.391065,-0.10408 -1.015402,-0.43361 -1.387444,-0.73226 -0.37203,-0.29867 -0.906874,-0.54303 -1.188566,-0.54303 -0.757536,0 -1.332085,0.75272 -1.08885,1.4265 0.117138,0.32447 0.119424,0.84912 0.0046,1.16587 -0.171287,0.47448 -0.32283,0.52184 -0.860423,0.26888 -0.872244,-0.41041 -2.469668,-0.0724 -3.039763,0.64319 -0.682708,0.85694 -1.716042,0.26516 -1.985497,-1.13708 -0.205876,-1.07133 0.06817,-2.00693 0.880808,-3.00757 0.50219,-0.61835 -0.08146,-1.25776 -0.896963,-0.98263 -0.402423,0.13577 -0.487038,0.39238 -0.332866,1.0095 0.25838,1.0343 -0.112222,2.41658 -0.604521,2.25475 -0.203022,-0.0667 -0.660882,-0.03 -1.01747,0.0817 -0.514321,0.16109 -0.911135,-0.0871 -1.919671,-1.20075 -1.162697,-1.28387 -1.238789,-1.47289 -0.890521,-2.21211 0.479751,-1.01829 -0.02867,-2.13823 -1.180106,-2.59947 -1.181938,-0.47346 -1.692606,-0.39695 -2.584546,0.38724 -1.098465,0.96575 -1.035224,2.04079 0.178713,3.03777 0.755978,0.62087 0.982945,1.05805 0.982945,1.8933 0,0.59731 -0.23183,1.31125 -0.515187,1.58652 -0.488856,0.47492 -0.626959,0.4724 -2.70206,-0.0493 -1.202784,-0.30241 -2.224205,-0.54983 -2.269829,-0.54983 -0.04566,0 -0.08296,-0.25191 -0.08296,-0.5598 0,-0.66358 -1.171556,-1.45665 -2.15184,-1.45665 -1.563474,0 -2.369484,2.03422 -1.180761,2.98003 0.791335,0.62963 1.751359,0.6028 2.733472,-0.0764 0.764296,-0.52857 0.884329,-0.53247 2.701558,-0.0878 2.375041,0.5812 3.032713,1.44361 1.795649,2.35466 -0.431979,0.31813 -1.262728,0.69993 -1.846117,0.84844 -0.58339,0.14851 -1.272176,0.45593 -1.530642,0.68317 -0.71402,0.62776 -5.335204,1.21976 -5.960421,0.76356 -0.397146,-0.28978 -0.590084,-0.2719 -1.00527,0.0931 -0.617728,0.54311 -0.321384,1.08314 0.594388,1.08314 0.951272,0 4.867038,3.38046 4.867038,4.2017 0,0.72054 1.399119,1.84766 2.293545,1.84766 0.311808,0 0.965349,-0.27553 1.452317,-0.6123 0.738593,-0.51079 0.869746,-0.80283 0.791024,-1.7614 -0.09432,-1.14846 -0.09328,-1.14952 1.895779,-1.94334 1.443898,-0.57625 2.143699,-0.71871 2.549559,-0.51902 0.307672,0.15138 0.756334,0.20879 0.997032,0.12759 0.664326,-0.22413 1.239516,1.98792 0.632154,2.43109 -0.644682,0.4704 -0.562787,1.81371 0.144896,2.37678 0.329556,0.2622 1.115572,0.47674 1.746707,0.47674 1.198542,0 1.642183,0.43783 2.039777,2.01311 0.206762,0.81917 -0.407115,2.88399 -0.857417,2.88399 -0.510278,0 -0.109089,1.00622 0.407908,1.02308 0.267915,0.009 0.88117,0.11773 1.362811,0.24221 0.77152,0.19939 0.855104,0.33791 0.70257,1.16432 -0.223869,1.21289 0.59494,2.61158 1.867585,3.19018 0.537574,0.24441 0.971218,0.47345 0.963645,0.50899 -0.0074,0.0355 -0.279398,1.03684 -0.604078,2.22511 -0.495965,1.81515 -0.70621,2.17554 -1.315349,2.25467 -1.534878,0.19938 -1.602842,2.64243 -0.07356,2.64243 0.325294,0 0.979675,0.47972 1.454174,1.06604 0.767131,0.94792 0.809228,1.118 0.379977,1.53502 -0.97645,0.94862 -0.38523,2.29604 1.007441,2.29604 0.802349,0 2.007505,1.95834 1.674579,2.72113 -0.270709,0.62024 -3.341204,0.63341 -3.610909,0.0155 -0.103724,-0.23765 -0.396331,-0.43209 -0.650232,-0.43209 -0.670661,0 -1.241279,0.71601 -1.003944,1.25978 0.22527,0.51611 1.289038,0.63548 1.608842,0.18054 0.111369,-0.15844 0.767158,-0.28807 1.457299,-0.28807 1.161572,0 1.269942,0.071 1.458778,0.95598 0.320788,1.50336 -0.103427,2.7939 -1.018983,3.09994 -1.005835,0.33621 -0.935933,1.51746 0.09748,1.64727 0.907832,0.11404 1.597655,-0.61857 1.188182,-1.26187 -0.194974,-0.30632 -0.191598,-0.8232 0.0093,-1.39828 0.287163,-0.8226 0.440655,-0.90962 1.560845,-0.88491 1.500769,0.0331 2.291708,0.55011 2.291708,1.498 0,0.56635 0.144929,0.68677 0.737212,0.61258 0.599532,-0.0751 0.722267,-0.25369 0.657183,-0.95625 -0.119728,-1.29226 1.96048,-8.96348 2.253245,-8.30939 0.455826,1.01835 0.30785,3.3442 -0.247048,3.88328 -0.292177,0.28384 -0.444242,0.71534 -0.337947,0.95889 0.29402,0.67363 1.501588,0.53902 1.841888,-0.20532 0.181773,-0.39758 0.304348,-0.47553 0.317094,-0.20164 0.02703,0.58068 -0.618819,1.13786 -1.318898,1.13786 -0.380446,0 -0.624468,0.33748 -0.781105,1.08024 -0.31095,1.47457 -1.222039,2.69499 -2.931038,3.9262 -1.716689,1.23675 -2.387886,1.47847 -4.840222,1.74311 -1.811844,0.19551 -1.8778,0.17826 -2.329885,-0.60957 z m 6.588001,-4.30315 c -0.423647,-0.37247 -0.464085,-0.61509 -0.190488,-1.14304 0.266177,-0.5136 0.230285,-0.82724 -0.153546,-1.34228 -0.475039,-0.6374 -0.411303,-0.80317 1.235326,-3.21282 1.821869,-2.66607 2.329728,-3.25321 2.604792,-3.01138 0.26648,0.23429 -2.262529,8.97845 -2.627719,9.08548 -0.181806,0.0532 -0.572567,-0.1159 -0.868365,-0.37596 z m -2.92287,-4.58171 c -0.491361,-0.97661 -0.579868,-1.43624 -0.320464,-1.66431 0.197115,-0.1733 0.358371,-0.59587 0.358371,-0.93906 0,-0.86328 4.446475,-2.68037 5.108686,-2.08771 0.346424,0.31002 0.08174,0.87267 -1.46542,3.11499 -1.038521,1.50513 -2.138889,2.77907 -2.445272,2.83097 -0.393444,0.0666 -0.756447,-0.30193 -1.235901,-1.25488 z m 7.829438,0.72842 c -0.111079,-0.23765 -0.275705,-1.42876 -0.365824,-2.6469 -0.154081,-2.08293 -0.118136,-2.24113 0.603648,-2.65693 0.422114,-0.24316 0.862319,-0.70483 0.978235,-1.02593 0.143323,-0.39701 0.491968,-0.58238 1.089703,-0.57939 1.297991,0.006 1.764561,0.38238 1.642408,1.32314 -0.08897,0.68545 -0.340214,0.89945 -1.418751,1.20855 -0.720826,0.20659 -1.458038,0.50446 -1.638238,0.66193 -0.180207,0.15747 -0.408998,1.15511 -0.508427,2.21697 -0.09942,1.06187 -0.271662,1.73622 -0.382754,1.49856 z m 7.893508,-0.63026 c -0.293483,-0.20788 -0.61427,-0.85492 -0.712861,-1.43788 -0.172244,-1.01846 -0.109744,-1.102 1.598554,-2.1364 0.977789,-0.59207 1.712529,-1.13388 1.632757,-1.20402 -0.07979,-0.0702 -0.581771,0.14588 -1.115535,0.48003 -1.051265,0.65814 -1.734642,0.82102 -1.098669,0.26188 0.216246,-0.19013 0.393176,-0.57901 0.393176,-0.8642 0,-0.62624 0.513609,-0.65507 1.730297,-0.0971 0.501146,0.22982 1.127776,0.34478 1.392503,0.25547 0.557039,-0.18793 0.645597,-0.8688 0.132554,-1.01916 -0.191828,-0.0562 -0.428747,-0.62637 -0.526482,-1.26699 -0.156182,-1.02377 -0.0743,-1.22436 0.676441,-1.65682 0.469772,-0.27062 0.854124,-0.6835 0.854124,-0.9175 0,-0.234 0.224819,-0.42546 0.499585,-0.42546 0.274777,0 0.648857,-0.34518 0.831304,-0.76707 0.444881,-1.02877 0.94949,-0.55701 1.33284,1.24608 0.228867,1.07646 0.19493,1.45894 -0.149198,1.68148 -0.244991,0.15844 -0.632342,0.78699 -0.860783,1.39679 -0.22844,0.6098 -0.915153,1.88613 -1.526024,2.83631 -0.61086,0.95017 -1.111402,1.81235 -1.112293,1.91596 -9.04e-4,0.1036 -0.33264,0.54461 -0.737211,0.98001 -0.859335,0.92482 -2.457161,1.28961 -3.235079,0.73859 z m -16.815378,-4.11215 c -0.53158,-0.20604 -1.293393,-0.73505 -1.692902,-1.17555 -0.66788,-0.73641 -0.686434,-0.85455 -0.230299,-1.4666 0.685073,-0.91922 2.404564,-1.16771 3.542859,-0.51198 0.751836,0.43311 0.989123,0.45329 1.571351,0.1336 0.616017,-0.33823 0.785546,-0.27839 1.666148,0.58811 l 0.980356,0.96465 -2.271667,0.93343 c -2.593783,1.06578 -2.306033,1.02267 -3.565846,0.53434 z M 48.3278,106.22469 c -1.09238,-0.14549 -1.186633,-0.85584 -0.232963,-1.75581 1.035653,-0.97734 1.855792,-0.82352 2.015337,0.37799 0.120266,0.90572 -0.221085,1.65596 -0.701128,1.54099 -0.09911,-0.0238 -0.585672,-0.0972 -1.081246,-0.16317 z m -6.437132,-0.92964 c -0.612067,-0.0882 -1.260401,-0.36711 -1.44076,-0.61985 -0.505011,-0.7077 0.0083,-1.97392 0.924503,-2.28015 0.821563,-0.27463 1.080287,-0.96832 0.482321,-1.29324 -0.194525,-0.10569 -0.322519,-1.83893 -0.315033,-4.26596 l 0.01262,-4.08792 1.027738,-0.57613 c 0.591742,-0.33172 1.188604,-1.0014 1.406903,-1.57857 0.314128,-0.83049 0.617809,-1.06318 1.770455,-1.35658 1.776569,-0.45223 2.541521,-0.0807 2.728204,1.3252 0.122597,0.9233 -0.0625,1.20489 -1.959367,2.98055 -1.286357,1.20417 -2.486696,2.6973 -3.110359,3.86901 l -1.015599,1.90809 0.546341,1.80264 c 0.569567,1.8793 0.723667,4.04663 0.300595,4.22792 -0.135156,0.0579 -0.746516,0.0332 -1.358575,-0.055 z m -6.964251,-0.80847 c -0.263402,-0.27726 -0.646518,-0.85062 -0.851398,-1.27413 -0.217683,-0.45 -0.682125,-0.80915 -1.117547,-0.86419 -0.613698,-0.0776 -0.857416,-0.44031 -1.382296,-2.05734 l -0.637235,-1.96314 0.802588,-0.70563 c 0.745385,-0.65534 0.921965,-0.68571 2.477821,-0.42629 2.596895,0.43299 3.293637,1.18292 3.567484,3.83979 0.224616,2.17923 0.217599,2.20756 -0.629708,2.54698 -0.471254,0.18878 -0.943321,0.58282 -1.049034,0.87565 -0.240414,0.66595 -0.567479,0.67378 -1.180675,0.0283 z m -6.57764,-0.99821 c -0.406329,-0.53803 -0.417878,-0.86562 -0.07366,-2.08847 0.22455,-0.79769 0.499957,-1.80683 0.612027,-2.24253 0.150869,-0.58658 0.402093,-0.79217 0.967986,-0.79217 0.663876,0 0.840773,0.24851 1.346782,1.89204 0.670728,2.17851 0.410524,3.11748 -0.99404,3.58698 -1.175687,0.39299 -1.313506,0.36661 -1.859108,-0.35585 z m 10.495289,-0.0101 c -0.718533,-0.50072 -1.159565,-4.82509 -0.492094,-4.82509 0.625519,0 1.538868,-0.94035 1.538868,-1.58435 0,-0.29193 -0.245561,-0.76933 -0.545707,-1.06091 -0.511189,-0.49663 -0.497288,-0.621 0.219845,-1.96713 1.311835,-2.46246 1.636461,-1.96126 1.636461,2.52664 0,3.66124 -0.05035,3.99127 -0.660096,4.32605 -0.482275,0.2648 -0.606702,0.54947 -0.461885,1.05673 0.212379,0.74399 -0.07588,1.88814 -0.475726,1.88814 -0.133624,0 -0.475477,-0.16203 -0.759666,-0.36008 z m -3.386663,-6.43685 c -0.174611,-0.0382 -0.83741,-0.14531 -1.472893,-0.23804 -1.106757,-0.16149 -1.156194,-0.2201 -1.173962,-1.3919 -0.01024,-0.67282 -0.124856,-1.48391 -0.254778,-1.80243 -0.1907,-0.4675 -0.044,-0.6429 0.760939,-0.91004 1.495695,-0.49635 2.260626,-0.17287 3.09855,1.31038 l 0.751928,1.33104 -0.696153,0.88522 c -0.382886,0.48687 -0.839029,0.85397 -1.013631,0.81577 z m 1.326291,-2.9877 c -1.064119,-1.84625 -1.039249,-2.20174 0.19323,-2.76208 0.997991,-0.45373 1.036731,-0.44582 1.9828,0.40494 l 0.964927,0.86772 -0.841552,1.46008 c -0.462849,0.80305 -0.984016,1.46009 -1.158156,1.46009 -0.174135,0 -0.687697,-0.64384 -1.141249,-1.43075 z M 24.900888,93.11643 c -0.405463,-0.17193 -0.737212,-0.5562 -0.737212,-0.85395 0,-0.78878 0.891973,-2.53931 1.293881,-2.53931 0.189404,0 0.34437,-0.18835 0.34437,-0.41856 0,-0.23822 0.526711,-0.54642 1.222488,-0.71532 1.560455,-0.37881 1.912582,-0.0675 2.159418,1.90887 0.186411,1.49263 0.184872,1.49569 -0.916084,1.81514 -0.606542,0.176 -1.280099,0.50781 -1.496785,0.73735 -0.457345,0.48448 -0.850029,0.4983 -1.870076,0.0658 z m 5.982918,-0.65082 c -1.014688,-0.39279 -1.389103,-1.07965 -1.445081,-2.65101 -0.02432,-0.68264 0.136947,-0.96413 0.63138,-1.10209 0.498238,-0.13904 1.152673,0.18688 2.621191,1.30538 1.076428,0.81987 1.957156,1.59479 1.957156,1.72205 0,0.2045 -0.454669,0.39381 -2.293538,0.95492 -0.270313,0.0825 -0.932312,-0.0207 -1.471108,-0.22925 z m 2.128991,-2.59282 c -1.660122,-1.20822 -2.181686,-1.779 -2.375663,-2.59979 -0.232055,-0.98196 -0.136649,-1.16478 1.439055,-2.75754 0.928177,-0.93821 1.934791,-1.70585 2.236932,-1.70585 0.302135,0 1.699602,1.0392 3.105468,2.30933 l 2.556134,2.30933 -0.861064,0.7016 c -0.553346,0.45086 -0.861064,1.00417 -0.861064,1.54826 0,0.71962 -0.197676,0.91622 -1.317226,1.31005 -0.72448,0.25486 -1.424822,0.45648 -1.556338,0.44804 -0.131503,-0.008 -1.196309,-0.71198 -2.366234,-1.56343 z m -8.953593,-1.99804 c -0.256073,-0.35252 -0.37935,-1.09135 -0.298798,-1.7907 0.07663,-0.66548 -0.01698,-1.27429 -0.212273,-1.38042 -0.222957,-0.12115 0.205705,-1.17236 1.184522,-2.90473 1.432969,-2.53619 1.588728,-2.70336 2.366464,-2.53995 0.457894,0.0962 0.864579,0.19567 0.903755,0.22103 0.03918,0.0253 0.231144,1.55694 0.426594,3.40353 0.307916,2.90903 0.287308,3.44876 -0.154285,4.04129 -0.28031,0.37613 -0.420542,0.76223 -0.31161,0.85799 0.221047,0.19435 -2.00604,0.74114 -2.896956,0.71126 -0.314312,-0.0105 -0.767653,-0.28922 -1.007413,-0.6193 z m 13.60422,-2.98419 c -2.558043,-2.49477 -2.423105,-1.90664 -1.485315,-6.47395 0.284645,-1.38631 0.628645,-2.52056 0.764442,-2.52056 0.135792,0 0.853313,1.23792 1.594478,2.75093 1.254382,2.56068 1.313295,2.79694 0.851787,3.41619 -0.565603,0.75894 -0.358339,1.49387 0.540572,1.91684 0.476765,0.22432 0.616745,0.61481 0.616745,1.72039 0,0.7866 -0.131819,1.43018 -0.29293,1.43018 -0.161118,0 -1.326516,-1.00801 -2.589779,-2.24002 z m -8.724405,-0.85668 c -0.119014,-1.22787 -0.298553,-2.77191 -0.398981,-3.43119 -0.154193,-1.01225 -0.07671,-1.2485 0.498014,-1.51894 0.568285,-0.26739 0.950682,-0.16465 2.317113,0.62257 1.22073,0.70326 1.590361,1.07439 1.45488,1.46074 -0.09989,0.28486 -0.0093,0.70048 0.201305,0.92359 0.210608,0.22311 0.268629,0.57337 0.128939,0.77836 -0.634935,0.9317 -3.243585,3.39738 -3.594391,3.39738 -0.250014,0 -0.468333,-0.80312 -0.606879,-2.23251 z m -7.004623,0.0107 c -0.953272,-0.16022 -1.433995,-1.24049 -1.178106,-2.64742 0.180768,-0.99386 0.37464,-1.16217 2.300073,-1.99695 2.368864,-1.027 2.745564,-1.09338 2.745564,-0.48374 0,0.50766 -2.689612,5.35107 -2.939951,5.29421 -0.095,-0.0216 -0.512404,-0.0963 -0.92758,-0.1661 z M 7.617398,82.11982 C 6.536159,81.26569 5.725224,80.501 5.815326,80.4205 c 0.0901,-0.0805 1.30894,-0.31447 2.708516,-0.51994 2.26691,-0.3328 2.602313,-0.32292 3.07255,0.0905 0.787587,0.69244 0.343847,2.27446 -0.856876,3.05495 -0.531223,0.3453 -1.008695,0.62759 -1.061039,0.6273 -0.05233,-2.8e-4 -0.979834,-0.69935 -2.061079,-1.55349 z m 5.177192,0.63286 c -0.589496,-0.25039 -0.685172,-0.46945 -0.526216,-1.20478 0.106857,-0.49432 0.480558,-1.14099 0.830452,-1.43706 0.358338,-0.30321 0.567248,-0.77002 0.47835,-1.06888 -0.248217,-0.83454 1.746985,-2.0356 3.012011,-1.81316 1.199012,0.21082 1.960996,1.69507 1.369274,2.66714 -0.191274,0.31421 -0.347766,0.81207 -0.347766,1.10636 0,0.36259 -0.583225,0.78654 -1.809327,1.31523 -2.009818,0.86662 -1.995751,0.86458 -3.006778,0.43515 z m 18.812712,-3.24555 c -2.081293,-1.24969 -2.045261,-1.19436 -1.123138,-1.72556 1.124029,-0.64751 2.380955,-0.12015 2.879578,1.20815 0.539067,1.43606 0.0255,1.58735 -1.75644,0.51741 z m 2.981088,0.68609 c -0.300345,-0.14777 -0.710142,-0.70571 -0.91064,-1.23984 -0.312006,-0.83118 -0.264895,-1.11967 0.326867,-2.00146 0.651989,-0.97154 1.772965,-1.59947 2.194221,-1.22911 0.157528,0.13849 -0.762679,4.47385 -0.992481,4.6759 -0.03958,0.0348 -0.317623,-0.0577 -0.617967,-0.20549 z M 20.371238,79.54468 c -0.101796,-0.23322 0.105569,-0.92271 0.460801,-1.5322 0.496904,-0.85257 0.951685,-1.19048 1.971666,-1.46498 1.699642,-0.45742 2.342929,-0.23369 2.342929,0.81487 0,0.69985 -0.241715,0.93532 -1.556339,1.51622 -2.306884,1.01937 -3.002079,1.16321 -3.219057,0.66609 z m -2.07319,-1.099 c -0.197836,-0.49895 -0.3597,-1.12233 -0.3597,-1.38528 0,-1.29703 2.153241,-2.19603 2.857297,-1.19293 0.64741,0.9224 -0.847505,3.48538 -2.032918,3.48538 -0.05775,0 -0.266845,-0.40823 -0.464679,-0.90717 z m 11.839718,-2.04129 c -0.481628,-1.17228 -0.19845,-2.23671 0.595032,-2.23671 0.751154,0 1.005808,0.72773 0.69809,1.99492 -0.317082,1.3058 -0.817547,1.39938 -1.293122,0.24179 z m 3.546968,-0.92004 c -0.304645,-0.32273 -0.180662,-1.31667 0.16423,-1.31667 0.342136,0 1.782434,0.69832 1.782434,0.8642 0,0.10757 -0.357414,0.33876 -0.794242,0.51375 -0.610164,0.24442 -0.877259,0.23022 -1.152422,-0.0613 z M 17.938348,75.05134 c 0,-0.14776 -0.294887,-0.35094 -0.6553,-0.45151 -0.520586,-0.14526 -0.655299,-0.43586 -0.655299,-1.4135 0,-1.01035 0.137106,-1.28556 0.765935,-1.53746 0.695856,-0.27875 0.890725,-0.16635 2.129725,1.22839 0.750077,0.84437 1.363782,1.5971 1.363782,1.67273 0,0.17754 -1.928406,0.77 -2.506265,0.77 -0.243415,0 -0.442578,-0.12089 -0.442578,-0.26865 z M 31.8844,74.57071 c -0.284215,-0.99557 0.163728,-1.38565 0.979596,-0.85303 0.500961,0.32705 0.562417,0.52433 0.286627,0.92015 -0.555282,0.79694 -1.026687,0.77196 -1.266223,-0.0671 z"
   id="path95-2" /><text
   xml:space="preserve"
   style="font-style:normal;font-variant:normal;font-weight:bold;font-stretch:normal;font-size:18.5885px;line-height:1.25;font-family:sans-serif;-inkscape-font-specification:'sans-serif, Bold';font-variant-ligatures:normal;font-variant-caps:normal;font-variant-numeric:normal;font-variant-east-asian:normal;fill:#000000;fill-opacity:1;stroke:none;stroke-width:0.464714"
   x="62.509178"
   y="110.62809"
   id="text15147-7"
   transform="scale(0.94001803,1.0638094)"><tspan
     sodipodi:role="line"
     id="tspan15145-0"
     x="62.509178"
     y="110.62809"
     style="font-style:normal;font-variant:normal;font-weight:bold;font-stretch:normal;font-size:18.5885px;font-family:sans-serif;-inkscape-font-specification:'sans-serif, Bold';font-variant-ligatures:normal;font-variant-caps:normal;font-variant-numeric:normal;font-variant-east-asian:normal;stroke-width:0.464714">South Africa</tspan></text><text
   xml:space="preserve"
   style="font-style:normal;font-variant:normal;font-weight:bold;font-stretch:normal;font-size:18.5885px;line-height:1.25;font-family:sans-serif;-inkscape-font-specification:'sans-serif, Bold';font-variant-ligatures:normal;font-variant-caps:normal;font-variant-numeric:normal;font-variant-east-asian:normal;fill:#000000;fill-opacity:1;stroke:none;stroke-width:0.464714"
   x="60.757095"
   y="47.301201"
   id="text15147-7-7"
   transform="scale(0.94001802,1.0638094)"><tspan
     sodipodi:role="line"
     id="tspan15145-0-7"
     x="60.757095"
     y="47.301201"
     style="font-style:normal;font-variant:normal;font-weight:bold;font-stretch:normal;font-size:18.5885px;font-family:sans-serif;-inkscape-font-specification:'sans-serif, Bold';font-variant-ligatures:normal;font-variant-caps:normal;font-variant-numeric:normal;font-variant-east-asian:normal;stroke-width:0.464714">South Africa</tspan></text><text
   xml:space="preserve"
   style="font-style:normal;font-weight:bold;font-size:23.29649925px;line-height:1.25;font-family:sans-serif;mix-blend-mode:darken;fill:#ffffff;fill-opacity:1;stroke:url(#linearGradient24877);stroke-width:0.659411;-inkscape-font-specification:'sans-serif, Bold';font-stretch:normal;font-variant:normal;font-variant-ligatures:normal;font-variant-caps:normal;font-variant-numeric:normal;font-variant-east-asian:normal"
   x="56.965969"
   y="153.72084"
   id="text5976-93"
   transform="scale(0.96994828,1.0309828)"><tspan
     sodipodi:role="line"
     id="tspan5974-6"
     x="56.965969"
     y="153.72084"
     style="fill:#ffffff;fill-opacity:1;stroke:url(#linearGradient24877);stroke-width:0.659411;-inkscape-font-specification:'sans-serif, Bold';font-family:sans-serif;font-weight:bold;font-style:normal;font-stretch:normal;font-variant:normal;font-size:23.29649925px;font-variant-ligatures:normal;font-variant-caps:normal;font-variant-numeric:normal;font-variant-east-asian:normal">DSA 2021</tspan></text><path
   style="fill:#000000;stroke-width:0.30722"
   d="m 29.668917,182.63682 c -0.255895,-0.44592 -0.557521,-1.34132 -0.670285,-1.98976 -0.112756,-0.64844 -0.499408,-1.76407 -0.859194,-2.47917 -0.359792,-0.71511 -0.800697,-2.20854 -0.979793,-3.31873 -0.179084,-1.11019 -0.636719,-2.65196 -1.016949,-3.42616 -0.839727,-1.70978 -0.867532,-2.63009 -0.145437,-4.81393 0.514811,-1.55693 0.516647,-1.8244 0.0257,-3.74424 -0.310619,-1.21468 -1.009237,-2.7538 -1.693609,-3.73119 -1.123455,-1.60449 -1.15667,-1.73115 -0.933786,-3.56095 0.248409,-2.03936 0.04322,-2.39587 -1.384266,-2.40471 -0.391633,-0.002 -1.150129,-0.32848 -1.685541,-0.72457 -1.120032,-0.82859 -1.814006,-0.88888 -3.423984,-0.29745 -0.632893,0.23249 -2.320132,0.50845 -3.749422,0.61325 -2.590162,0.18992 -2.604613,0.1871 -4.390899,-0.85564 -1.434132,-0.83718 -2.046507,-1.46016 -3.065151,-3.11827 -1.204159,-1.96007 -1.284776,-2.25198 -1.491325,-5.40038 l -0.218349,-3.32831 1.088166,-1.9249 c 0.699042,-1.23657 1.617943,-2.31425 2.569661,-3.01367 1.224099,-0.89961 1.481481,-1.25909 1.481481,-2.06916 0,-0.75249 0.266567,-1.19505 1.146772,-1.90388 0.630727,-0.50793 1.146773,-1.12528 1.146773,-1.37189 0,-0.71623 0.865761,-1.16347 1.874979,-0.96859 0.549096,0.10603 1.642302,-0.0408 2.716524,-0.36501 0.988708,-0.29834 3.161493,-0.63572 4.828408,-0.74971 l 3.030757,-0.20727 v 1.18698 c 0,1.46382 0.765882,2.20567 3.555195,3.44359 2.432896,1.07975 3.220194,1.11611 3.709831,0.17129 0.203689,-0.39304 0.605994,-0.77936 0.894015,-0.85849 0.497578,-0.13671 8.380041,1.32674 8.710371,1.61716 0.08628,0.0759 -0.0074,0.5205 -0.207998,0.98803 -0.328413,0.76494 -0.215795,1.09468 1.124967,3.29375 0.819456,1.34404 1.790885,3.31444 2.158725,4.37866 0.889489,2.57343 1.325585,3.23347 3.454813,5.22897 1.679886,1.57436 1.87813,1.67682 2.881396,1.48923 2.161859,-0.40424 3.676839,-0.33226 3.791942,0.18016 0.124613,0.55474 -2.186917,4.03014 -2.796468,4.2045 -0.733709,0.20988 -0.431098,-0.84127 0.409559,-1.42264 1.036971,-0.71715 1.045422,-1.53329 0.02201,-2.12286 -0.96058,-0.55335 -2.151699,-0.14891 -2.151699,0.73059 0,0.39302 -0.354604,0.63904 -1.228689,0.85246 -1.747421,0.42665 -1.886839,0.40041 -2.980341,-0.56099 -0.54062,-0.47531 -1.289178,-0.86419 -1.663454,-0.86419 -0.601864,0 -0.6805,-0.17351 -0.6805,-1.50152 0,-1.2883 0.126369,-1.59012 0.889905,-2.12538 0.797837,-0.55932 0.849839,-0.70119 0.502614,-1.37119 -0.213013,-0.41103 -0.750738,-0.82752 -1.194974,-0.92554 -0.64223,-0.14172 -1.080777,-0.72571 -2.140859,-2.85083 -0.733255,-1.46994 -1.333183,-3.01368 -1.333183,-3.43054 0,-0.64742 -0.14107,-0.75793 -0.967524,-0.75793 -0.532148,0 -1.337068,-0.14803 -1.788718,-0.32895 -0.705892,-0.28278 -0.770335,-0.4142 -0.45905,-0.93621 0.199164,-0.33399 0.564857,-0.71245 0.812651,-0.84101 0.247788,-0.12857 0.365006,-0.35542 0.260482,-0.50412 -0.350238,-0.49823 -0.671971,-0.27781 -1.094693,0.74998 -0.351677,0.85505 -0.534831,0.98967 -1.130682,0.83108 -0.391065,-0.10408 -1.015402,-0.43361 -1.387444,-0.73226 -0.37203,-0.29867 -0.906874,-0.54303 -1.188566,-0.54303 -0.757536,0 -1.332085,0.75272 -1.08885,1.4265 0.117138,0.32447 0.119424,0.84912 0.0046,1.16587 -0.171287,0.47448 -0.32283,0.52184 -0.860423,0.26888 -0.872244,-0.41041 -2.469668,-0.0724 -3.039763,0.64319 -0.682708,0.85694 -1.716042,0.26516 -1.985497,-1.13708 -0.205876,-1.07133 0.06817,-2.00693 0.880808,-3.00757 0.50219,-0.61835 -0.08146,-1.25776 -0.896963,-0.98263 -0.402423,0.13577 -0.487038,0.39238 -0.332866,1.0095 0.25838,1.0343 -0.112222,2.41658 -0.604521,2.25475 -0.203022,-0.0667 -0.660882,-0.03 -1.01747,0.0817 -0.514321,0.16109 -0.911135,-0.0871 -1.919671,-1.20075 -1.162697,-1.28387 -1.238789,-1.47289 -0.890521,-2.21211 0.479751,-1.01829 -0.02867,-2.13823 -1.180106,-2.59947 -1.181938,-0.47346 -1.692606,-0.39695 -2.584546,0.38724 -1.098465,0.96575 -1.035224,2.04079 0.178713,3.03777 0.755978,0.62087 0.982945,1.05805 0.982945,1.8933 0,0.59731 -0.23183,1.31125 -0.515187,1.58652 -0.488856,0.47492 -0.626959,0.4724 -2.70206,-0.0493 -1.202784,-0.30241 -2.224205,-0.54983 -2.269829,-0.54983 -0.04566,0 -0.08296,-0.25191 -0.08296,-0.5598 0,-0.66358 -1.171556,-1.45665 -2.15184,-1.45665 -1.563474,0 -2.369484,2.03422 -1.180761,2.98003 0.791335,0.62963 1.751359,0.6028 2.733472,-0.0764 0.764296,-0.52857 0.884329,-0.53247 2.701558,-0.0878 2.375041,0.5812 3.032713,1.44361 1.795649,2.35466 -0.431979,0.31813 -1.262728,0.69993 -1.846117,0.84844 -0.58339,0.14851 -1.272176,0.45593 -1.530642,0.68317 -0.71402,0.62776 -5.335204,1.21976 -5.960421,0.76356 -0.397146,-0.28978 -0.590084,-0.2719 -1.00527,0.0931 -0.617728,0.54311 -0.321384,1.08314 0.594388,1.08314 0.951272,0 4.867038,3.38046 4.867038,4.2017 0,0.72054 1.399119,1.84766 2.293545,1.84766 0.311808,0 0.965349,-0.27553 1.452317,-0.6123 0.738593,-0.51079 0.869746,-0.80283 0.791024,-1.7614 -0.09432,-1.14846 -0.09328,-1.14952 1.895779,-1.94334 1.443898,-0.57625 2.143699,-0.71871 2.549559,-0.51902 0.307672,0.15138 0.756334,0.20879 0.997032,0.12759 0.664326,-0.22413 1.239516,1.98792 0.632154,2.43109 -0.644682,0.4704 -0.562787,1.81371 0.144896,2.37678 0.329556,0.2622 1.115572,0.47674 1.746707,0.47674 1.198542,0 1.642183,0.43783 2.039777,2.01311 0.206762,0.81917 -0.407115,2.88399 -0.857417,2.88399 -0.510278,0 -0.109089,1.00622 0.407908,1.02308 0.267915,0.009 0.88117,0.11773 1.362811,0.24221 0.77152,0.19939 0.855104,0.33791 0.70257,1.16432 -0.223869,1.21289 0.59494,2.61158 1.867585,3.19018 0.537574,0.24441 0.971218,0.47345 0.963645,0.50899 -0.0074,0.0355 -0.279398,1.03684 -0.604078,2.22511 -0.495965,1.81515 -0.70621,2.17554 -1.315349,2.25467 -1.534878,0.19938 -1.602842,2.64243 -0.07356,2.64243 0.325294,0 0.979675,0.47972 1.454174,1.06604 0.767131,0.94792 0.809228,1.118 0.379977,1.53502 -0.97645,0.94862 -0.38523,2.29604 1.007441,2.29604 0.802349,0 2.007505,1.95834 1.674579,2.72113 -0.270709,0.62024 -3.341204,0.63341 -3.610909,0.0155 -0.103724,-0.23765 -0.396331,-0.43209 -0.650232,-0.43209 -0.670661,0 -1.241279,0.71601 -1.003944,1.25978 0.22527,0.51611 1.289038,0.63548 1.608842,0.18054 0.111369,-0.15844 0.767158,-0.28807 1.457299,-0.28807 1.161572,0 1.269942,0.071 1.458778,0.95598 0.320788,1.50336 -0.103427,2.7939 -1.018983,3.09994 -1.005835,0.33621 -0.935933,1.51746 0.09748,1.64727 0.907832,0.11404 1.597655,-0.61857 1.188182,-1.26187 -0.194974,-0.30632 -0.191598,-0.8232 0.0093,-1.39828 0.287163,-0.8226 0.440655,-0.90962 1.560845,-0.88491 1.500769,0.0331 2.291708,0.55011 2.291708,1.498 0,0.56635 0.144929,0.68677 0.737212,0.61258 0.599532,-0.0751 0.722267,-0.25369 0.657183,-0.95625 -0.119728,-1.29226 1.96048,-8.96348 2.253245,-8.30939 0.455826,1.01835 0.30785,3.3442 -0.247048,3.88328 -0.292177,0.28384 -0.444242,0.71534 -0.337947,0.95889 0.29402,0.67363 1.501588,0.53902 1.841888,-0.20532 0.181773,-0.39758 0.304348,-0.47553 0.317094,-0.20164 0.02703,0.58068 -0.618819,1.13786 -1.318898,1.13786 -0.380446,0 -0.624468,0.33748 -0.781105,1.08024 -0.31095,1.47457 -1.222039,2.69499 -2.931038,3.9262 -1.716689,1.23675 -2.387886,1.47847 -4.840222,1.74311 -1.811844,0.19551 -1.8778,0.17826 -2.329885,-0.60957 z m 6.588001,-4.30315 c -0.423647,-0.37247 -0.464085,-0.61509 -0.190488,-1.14304 0.266177,-0.5136 0.230285,-0.82724 -0.153546,-1.34228 -0.475039,-0.6374 -0.411303,-0.80317 1.235326,-3.21282 1.821869,-2.66607 2.329728,-3.25321 2.604792,-3.01138 0.26648,0.23429 -2.262529,8.97845 -2.627719,9.08548 -0.181806,0.0532 -0.572567,-0.1159 -0.868365,-0.37596 z m -2.92287,-4.58171 c -0.491361,-0.97661 -0.579868,-1.43624 -0.320464,-1.66431 0.197115,-0.1733 0.358371,-0.59587 0.358371,-0.93906 0,-0.86328 4.446475,-2.68037 5.108686,-2.08771 0.346424,0.31002 0.08174,0.87267 -1.46542,3.11499 -1.038521,1.50513 -2.138889,2.77907 -2.445272,2.83097 -0.393444,0.0666 -0.756447,-0.30193 -1.235901,-1.25488 z m 7.829438,0.72842 c -0.111079,-0.23765 -0.275705,-1.42876 -0.365824,-2.6469 -0.154081,-2.08293 -0.118136,-2.24113 0.603648,-2.65693 0.422114,-0.24316 0.862319,-0.70483 0.978235,-1.02593 0.143323,-0.39701 0.491968,-0.58238 1.089703,-0.57939 1.297991,0.006 1.764561,0.38238 1.642408,1.32314 -0.08897,0.68545 -0.340214,0.89945 -1.418751,1.20855 -0.720826,0.20659 -1.458038,0.50446 -1.638238,0.66193 -0.180207,0.15747 -0.408998,1.15511 -0.508427,2.21697 -0.09942,1.06187 -0.271662,1.73622 -0.382754,1.49856 z m 7.893508,-0.63026 c -0.293483,-0.20788 -0.61427,-0.85492 -0.712861,-1.43788 -0.172244,-1.01846 -0.109744,-1.102 1.598554,-2.1364 0.977789,-0.59207 1.712529,-1.13388 1.632757,-1.20402 -0.07979,-0.0702 -0.581771,0.14588 -1.115535,0.48003 -1.051265,0.65814 -1.734642,0.82102 -1.098669,0.26188 0.216246,-0.19013 0.393176,-0.57901 0.393176,-0.8642 0,-0.62624 0.513609,-0.65507 1.730297,-0.0971 0.501146,0.22982 1.127776,0.34478 1.392503,0.25547 0.557039,-0.18793 0.645597,-0.8688 0.132554,-1.01916 -0.191828,-0.0562 -0.428747,-0.62637 -0.526482,-1.26699 -0.156182,-1.02377 -0.0743,-1.22436 0.676441,-1.65682 0.469772,-0.27062 0.854124,-0.6835 0.854124,-0.9175 0,-0.234 0.224819,-0.42546 0.499585,-0.42546 0.274777,0 0.648857,-0.34518 0.831304,-0.76707 0.444881,-1.02877 0.94949,-0.55701 1.33284,1.24608 0.228867,1.07646 0.19493,1.45894 -0.149198,1.68148 -0.244991,0.15844 -0.632342,0.78699 -0.860783,1.39679 -0.22844,0.6098 -0.915153,1.88613 -1.526024,2.83631 -0.61086,0.95017 -1.111402,1.81235 -1.112293,1.91596 -9.04e-4,0.1036 -0.33264,0.54461 -0.737211,0.98001 -0.859335,0.92482 -2.457161,1.28961 -3.235079,0.73859 z m -16.815378,-4.11215 c -0.53158,-0.20604 -1.293393,-0.73505 -1.692902,-1.17555 -0.66788,-0.73641 -0.686434,-0.85455 -0.230299,-1.4666 0.685073,-0.91922 2.404564,-1.16771 3.542859,-0.51198 0.751836,0.43311 0.989123,0.45329 1.571351,0.1336 0.616017,-0.33823 0.785546,-0.27839 1.666148,0.58811 l 0.980356,0.96465 -2.271667,0.93343 c -2.593783,1.06578 -2.306033,1.02267 -3.565846,0.53434 z M 50.3278,168.22469 c -1.09238,-0.14549 -1.186633,-0.85584 -0.232963,-1.75581 1.035653,-0.97734 1.855792,-0.82352 2.015337,0.37799 0.120266,0.90572 -0.221085,1.65596 -0.701128,1.54099 -0.09911,-0.0238 -0.585672,-0.0972 -1.081246,-0.16317 z m -6.437132,-0.92964 c -0.612067,-0.0882 -1.260401,-0.36711 -1.44076,-0.61985 -0.505011,-0.7077 0.0083,-1.97392 0.924503,-2.28015 0.821563,-0.27463 1.080287,-0.96832 0.482321,-1.29324 -0.194525,-0.10569 -0.322519,-1.83893 -0.315033,-4.26596 l 0.01262,-4.08792 1.027738,-0.57613 c 0.591742,-0.33172 1.188604,-1.0014 1.406903,-1.57857 0.314128,-0.83049 0.617809,-1.06318 1.770455,-1.35658 1.776569,-0.45223 2.541521,-0.0807 2.728204,1.3252 0.122597,0.9233 -0.0625,1.20489 -1.959367,2.98055 -1.286357,1.20417 -2.486696,2.6973 -3.110359,3.86901 l -1.015599,1.90809 0.546341,1.80264 c 0.569567,1.8793 0.723667,4.04663 0.300595,4.22792 -0.135156,0.0579 -0.746516,0.0332 -1.358575,-0.055 z m -6.964251,-0.80847 c -0.263402,-0.27726 -0.646518,-0.85062 -0.851398,-1.27413 -0.217683,-0.45 -0.682125,-0.80915 -1.117547,-0.86419 -0.613698,-0.0776 -0.857416,-0.44031 -1.382296,-2.05734 l -0.637235,-1.96314 0.802588,-0.70563 c 0.745385,-0.65534 0.921965,-0.68571 2.477821,-0.42629 2.596895,0.43299 3.293637,1.18292 3.567484,3.83979 0.224616,2.17923 0.217599,2.20756 -0.629708,2.54698 -0.471254,0.18878 -0.943321,0.58282 -1.049034,0.87565 -0.240414,0.66595 -0.567479,0.67378 -1.180675,0.0283 z m -6.57764,-0.99821 c -0.406329,-0.53803 -0.417878,-0.86562 -0.07366,-2.08847 0.22455,-0.79769 0.499957,-1.80683 0.612027,-2.24253 0.150869,-0.58658 0.402093,-0.79217 0.967986,-0.79217 0.663876,0 0.840773,0.24851 1.346782,1.89204 0.670728,2.17851 0.410524,3.11748 -0.99404,3.58698 -1.175687,0.39299 -1.313506,0.36661 -1.859108,-0.35585 z m 10.495289,-0.0101 c -0.718533,-0.50072 -1.159565,-4.82509 -0.492094,-4.82509 0.625519,0 1.538868,-0.94035 1.538868,-1.58435 0,-0.29193 -0.245561,-0.76933 -0.545707,-1.06091 -0.511189,-0.49663 -0.497288,-0.621 0.219845,-1.96713 1.311835,-2.46246 1.636461,-1.96126 1.636461,2.52664 0,3.66124 -0.05035,3.99127 -0.660096,4.32605 -0.482275,0.2648 -0.606702,0.54947 -0.461885,1.05673 0.212379,0.74399 -0.07588,1.88814 -0.475726,1.88814 -0.133624,0 -0.475477,-0.16203 -0.759666,-0.36008 z m -3.386663,-6.43685 c -0.174611,-0.0382 -0.83741,-0.14531 -1.472893,-0.23804 -1.106757,-0.16149 -1.156194,-0.2201 -1.173962,-1.3919 -0.01024,-0.67282 -0.124856,-1.48391 -0.254778,-1.80243 -0.1907,-0.4675 -0.044,-0.6429 0.760939,-0.91004 1.495695,-0.49635 2.260626,-0.17287 3.09855,1.31038 l 0.751928,1.33104 -0.696153,0.88522 c -0.382886,0.48687 -0.839029,0.85397 -1.013631,0.81577 z m 1.326291,-2.9877 c -1.064119,-1.84625 -1.039249,-2.20174 0.19323,-2.76208 0.997991,-0.45373 1.036731,-0.44582 1.9828,0.40494 l 0.964927,0.86772 -0.841552,1.46008 c -0.462849,0.80305 -0.984016,1.46009 -1.158156,1.46009 -0.174135,0 -0.687697,-0.64384 -1.141249,-1.43075 z m -11.882806,-0.93729 c -0.405463,-0.17193 -0.737212,-0.5562 -0.737212,-0.85395 0,-0.78878 0.891973,-2.53931 1.293881,-2.53931 0.189404,0 0.34437,-0.18835 0.34437,-0.41856 0,-0.23822 0.526711,-0.54642 1.222488,-0.71532 1.560455,-0.37881 1.912582,-0.0675 2.159418,1.90887 0.186411,1.49263 0.184872,1.49569 -0.916084,1.81514 -0.606542,0.176 -1.280099,0.50781 -1.496785,0.73735 -0.457345,0.48448 -0.850029,0.4983 -1.870076,0.0658 z m 5.982918,-0.65082 c -1.014688,-0.39279 -1.389103,-1.07965 -1.445081,-2.65101 -0.02432,-0.68264 0.136947,-0.96413 0.63138,-1.10209 0.498238,-0.13904 1.152673,0.18688 2.621191,1.30538 1.076428,0.81987 1.957156,1.59479 1.957156,1.72205 0,0.2045 -0.454669,0.39381 -2.293538,0.95492 -0.270313,0.0825 -0.932312,-0.0207 -1.471108,-0.22925 z m 2.128991,-2.59282 c -1.660122,-1.20822 -2.181686,-1.779 -2.375663,-2.59979 -0.232055,-0.98196 -0.136649,-1.16478 1.439055,-2.75754 0.928177,-0.93821 1.934791,-1.70585 2.236932,-1.70585 0.302135,0 1.699602,1.0392 3.105468,2.30933 l 2.556134,2.30933 -0.861064,0.7016 c -0.553346,0.45086 -0.861064,1.00417 -0.861064,1.54826 0,0.71962 -0.197676,0.91622 -1.317226,1.31005 -0.72448,0.25486 -1.424822,0.45648 -1.556338,0.44804 -0.131503,-0.008 -1.196309,-0.71198 -2.366234,-1.56343 z m -8.953593,-1.99804 c -0.256073,-0.35252 -0.37935,-1.09135 -0.298798,-1.7907 0.07663,-0.66548 -0.01698,-1.27429 -0.212273,-1.38042 -0.222957,-0.12115 0.205705,-1.17236 1.184522,-2.90473 1.432969,-2.53619 1.588728,-2.70336 2.366464,-2.53995 0.457894,0.0962 0.864579,0.19567 0.903755,0.22103 0.03918,0.0253 0.231144,1.55694 0.426594,3.40353 0.307916,2.90903 0.287308,3.44876 -0.154285,4.04129 -0.28031,0.37613 -0.420542,0.76223 -0.31161,0.85799 0.221047,0.19435 -2.00604,0.74114 -2.896956,0.71126 -0.314312,-0.0105 -0.767653,-0.28922 -1.007413,-0.6193 z m 13.60422,-2.98419 c -2.558043,-2.49477 -2.423105,-1.90664 -1.485315,-6.47395 0.284645,-1.38631 0.628645,-2.52056 0.764442,-2.52056 0.135792,0 0.853313,1.23792 1.594478,2.75093 1.254382,2.56068 1.313295,2.79694 0.851787,3.41619 -0.565603,0.75894 -0.358339,1.49387 0.540572,1.91684 0.476765,0.22432 0.616745,0.61481 0.616745,1.72039 0,0.7866 -0.131819,1.43018 -0.29293,1.43018 -0.161118,0 -1.326516,-1.00801 -2.589779,-2.24002 z m -8.724405,-0.85668 c -0.119014,-1.22787 -0.298553,-2.77191 -0.398981,-3.43119 -0.154193,-1.01225 -0.07671,-1.2485 0.498014,-1.51894 0.568285,-0.26739 0.950682,-0.16465 2.317113,0.62257 1.22073,0.70326 1.590361,1.07439 1.45488,1.46074 -0.09989,0.28486 -0.0093,0.70048 0.201305,0.92359 0.210608,0.22311 0.268629,0.57337 0.128939,0.77836 -0.634935,0.9317 -3.243585,3.39738 -3.594391,3.39738 -0.250014,0 -0.468333,-0.80312 -0.606879,-2.23251 z m -7.004623,0.0107 c -0.953272,-0.16022 -1.433995,-1.24049 -1.178106,-2.64742 0.180768,-0.99386 0.37464,-1.16217 2.300073,-1.99695 2.368864,-1.027 2.745564,-1.09338 2.745564,-0.48374 0,0.50766 -2.689612,5.35107 -2.939951,5.29421 -0.095,-0.0216 -0.512404,-0.0963 -0.92758,-0.1661 z M 9.617398,144.11982 C 8.536159,143.26569 7.725224,142.501 7.815326,142.4205 c 0.0901,-0.0805 1.30894,-0.31447 2.708516,-0.51994 2.26691,-0.3328 2.602313,-0.32292 3.07255,0.0905 0.787587,0.69244 0.343847,2.27446 -0.856876,3.05495 -0.531223,0.3453 -1.008695,0.62759 -1.061039,0.6273 -0.05233,-2.8e-4 -0.979834,-0.69935 -2.061079,-1.55349 z m 5.177192,0.63286 c -0.589496,-0.25039 -0.685172,-0.46945 -0.526216,-1.20478 0.106857,-0.49432 0.480558,-1.14099 0.830452,-1.43706 0.358338,-0.30321 0.567248,-0.77002 0.47835,-1.06888 -0.248217,-0.83454 1.746985,-2.0356 3.012011,-1.81316 1.199012,0.21082 1.960996,1.69507 1.369274,2.66714 -0.191274,0.31421 -0.347766,0.81207 -0.347766,1.10636 0,0.36259 -0.583225,0.78654 -1.809327,1.31523 -2.009818,0.86662 -1.995751,0.86458 -3.006778,0.43515 z m 18.812712,-3.24555 c -2.081293,-1.24969 -2.045261,-1.19436 -1.123138,-1.72556 1.124029,-0.64751 2.380955,-0.12015 2.879578,1.20815 0.539067,1.43606 0.0255,1.58735 -1.75644,0.51741 z m 2.981088,0.68609 c -0.300345,-0.14777 -0.710142,-0.70571 -0.91064,-1.23984 -0.312006,-0.83118 -0.264895,-1.11967 0.326867,-2.00146 0.651989,-0.97154 1.772965,-1.59947 2.194221,-1.22911 0.157528,0.13849 -0.762679,4.47385 -0.992481,4.6759 -0.03958,0.0348 -0.317623,-0.0577 -0.617967,-0.20549 z m -14.217152,-0.64854 c -0.101796,-0.23322 0.105569,-0.92271 0.460801,-1.5322 0.496904,-0.85257 0.951685,-1.19048 1.971666,-1.46498 1.699642,-0.45742 2.342929,-0.23369 2.342929,0.81487 0,0.69985 -0.241715,0.93532 -1.556339,1.51622 -2.306884,1.01937 -3.002079,1.16321 -3.219057,0.66609 z m -2.07319,-1.099 c -0.197836,-0.49895 -0.3597,-1.12233 -0.3597,-1.38528 0,-1.29703 2.153241,-2.19603 2.857297,-1.19293 0.64741,0.9224 -0.847505,3.48538 -2.032918,3.48538 -0.05775,0 -0.266845,-0.40823 -0.464679,-0.90717 z m 11.839718,-2.04129 c -0.481628,-1.17228 -0.19845,-2.23671 0.595032,-2.23671 0.751154,0 1.005808,0.72773 0.69809,1.99492 -0.317082,1.3058 -0.817547,1.39938 -1.293122,0.24179 z m 3.546968,-0.92004 c -0.304645,-0.32273 -0.180662,-1.31667 0.16423,-1.31667 0.342136,0 1.782434,0.69832 1.782434,0.8642 0,0.10757 -0.357414,0.33876 -0.794242,0.51375 -0.610164,0.24442 -0.877259,0.23022 -1.152422,-0.0613 z m -15.746386,-0.43301 c 0,-0.14776 -0.294887,-0.35094 -0.6553,-0.45151 -0.520586,-0.14526 -0.655299,-0.43586 -0.655299,-1.4135 0,-1.01035 0.137106,-1.28556 0.765935,-1.53746 0.695856,-0.27875 0.890725,-0.16635 2.129725,1.22839 0.750077,0.84437 1.363782,1.5971 1.363782,1.67273 0,0.17754 -1.928406,0.77 -2.506265,0.77 -0.243415,0 -0.442578,-0.12089 -0.442578,-0.26865 z M 33.8844,136.57071 c -0.284215,-0.99557 0.163728,-1.38565 0.979596,-0.85303 0.500961,0.32705 0.562417,0.52433 0.286627,0.92015 -0.555282,0.79694 -1.026687,0.77196 -1.266223,-0.0671 z"
   id="path95-0" /><text
   xml:space="preserve"
   style="font-style:normal;font-variant:normal;font-weight:bold;font-stretch:normal;font-size:19.1438px;line-height:1.25;font-family:sans-serif;-inkscape-font-specification:'sans-serif, Bold';font-variant-ligatures:normal;font-variant-caps:normal;font-variant-numeric:normal;font-variant-east-asian:normal;mix-blend-mode:darken;fill:#ffffff;fill-opacity:1;stroke:url(#linearGradient25241);stroke-width:0.415321"
   x="61.683304"
   y="164.22914"
   id="text15147-6"
   transform="scale(0.9227251,1.0837464)"><tspan
     sodipodi:role="line"
     id="tspan15145-2"
     x="61.683304"
     y="164.22914"
     style="font-style:normal;font-variant:normal;font-weight:bold;font-stretch:normal;font-size:19.1438px;font-family:sans-serif;-inkscape-font-specification:'sans-serif, Bold';font-variant-ligatures:normal;font-variant-caps:normal;font-variant-numeric:normal;font-variant-east-asian:normal;fill:#ffffff;fill-opacity:1;stroke:url(#linearGradient25241);stroke-width:0.415321">South Africa</tspan></text></svg>
